<mxfile host="app.diagrams.net" modified="2021-11-14T05:18:02.701Z" agent="5.0 (Macintosh; Intel Mac OS X 10_15_7) AppleWebKit/537.36 (KHTML, like Gecko) Chrome/95.0.4638.69 Safari/537.36" etag="ZOLO-_QZxaba3fCkDuVC" version="15.7.1" type="github">
  <diagram id="EVHs4rZt3i18k2Bv8NaI" name="Page-1">
    <mxGraphModel dx="2893" dy="2261" grid="1" gridSize="10" guides="1" tooltips="1" connect="1" arrows="1" fold="1" page="1" pageScale="1" pageWidth="827" pageHeight="1169" math="0" shadow="0">
      <root>
        <mxCell id="0" />
        <mxCell id="1" parent="0" />
        <mxCell id="lQVxlF4VZJa24ufhP5Dz-40" value="" style="group" vertex="1" connectable="0" parent="1">
          <mxGeometry x="-620" y="-140" width="670" height="670" as="geometry" />
        </mxCell>
        <mxCell id="lQVxlF4VZJa24ufhP5Dz-23" value="" style="whiteSpace=wrap;html=1;aspect=fixed;fontSize=29;fillColor=#C8FAE6;strokeColor=#ae4132;" vertex="1" parent="lQVxlF4VZJa24ufhP5Dz-40">
          <mxGeometry width="670" height="670" as="geometry" />
        </mxCell>
        <mxCell id="lQVxlF4VZJa24ufhP5Dz-1" value="&lt;b&gt;&lt;font style=&quot;font-size: 23px&quot;&gt;公有云 / IDC / 混合云&lt;/font&gt;&lt;/b&gt;" style="rounded=0;whiteSpace=wrap;html=1;fillColor=#f5f5f5;fontColor=#333333;strokeColor=#666666;" vertex="1" parent="lQVxlF4VZJa24ufhP5Dz-40">
          <mxGeometry x="159" y="550" width="430" height="90" as="geometry" />
        </mxCell>
        <mxCell id="lQVxlF4VZJa24ufhP5Dz-2" value="&lt;b&gt;&lt;font style=&quot;font-size: 29px&quot;&gt;Iaas&lt;/font&gt;&lt;/b&gt;" style="text;html=1;strokeColor=none;fillColor=none;align=center;verticalAlign=middle;whiteSpace=wrap;rounded=0;" vertex="1" parent="lQVxlF4VZJa24ufhP5Dz-40">
          <mxGeometry x="50" y="580" width="60" height="30" as="geometry" />
        </mxCell>
        <mxCell id="lQVxlF4VZJa24ufhP5Dz-4" value="&lt;b&gt;&lt;font style=&quot;font-size: 23px&quot;&gt;领域服务&lt;/font&gt;&lt;/b&gt;" style="rounded=0;whiteSpace=wrap;html=1;fillColor=#f5f5f5;fontColor=#333333;strokeColor=#666666;" vertex="1" parent="lQVxlF4VZJa24ufhP5Dz-40">
          <mxGeometry x="160" y="300" width="210" height="90" as="geometry" />
        </mxCell>
        <mxCell id="lQVxlF4VZJa24ufhP5Dz-5" value="&lt;b&gt;&lt;font style=&quot;font-size: 29px&quot;&gt;IPaas&lt;/font&gt;&lt;/b&gt;" style="text;html=1;strokeColor=none;fillColor=none;align=center;verticalAlign=middle;whiteSpace=wrap;rounded=0;" vertex="1" parent="lQVxlF4VZJa24ufhP5Dz-40">
          <mxGeometry x="40" y="270" width="60" height="30" as="geometry" />
        </mxCell>
        <mxCell id="lQVxlF4VZJa24ufhP5Dz-17" style="edgeStyle=orthogonalEdgeStyle;rounded=0;orthogonalLoop=1;jettySize=auto;html=1;fontSize=29;" edge="1" parent="lQVxlF4VZJa24ufhP5Dz-40" source="lQVxlF4VZJa24ufhP5Dz-6" target="lQVxlF4VZJa24ufhP5Dz-4">
          <mxGeometry relative="1" as="geometry">
            <Array as="points">
              <mxPoint x="265" y="420" />
              <mxPoint x="265" y="420" />
            </Array>
          </mxGeometry>
        </mxCell>
        <mxCell id="lQVxlF4VZJa24ufhP5Dz-6" value="&lt;span style=&quot;font-size: 23px&quot;&gt;&lt;b&gt;应用云原生服务&lt;/b&gt;&lt;/span&gt;" style="rounded=0;whiteSpace=wrap;html=1;fillColor=#ffe6cc;strokeColor=#d79b00;" vertex="1" parent="lQVxlF4VZJa24ufhP5Dz-40">
          <mxGeometry x="159.5" y="430" width="429.5" height="90" as="geometry" />
        </mxCell>
        <mxCell id="lQVxlF4VZJa24ufhP5Dz-20" style="edgeStyle=orthogonalEdgeStyle;rounded=0;orthogonalLoop=1;jettySize=auto;html=1;exitX=0.25;exitY=0;exitDx=0;exitDy=0;fontSize=29;entryX=0.25;entryY=1;entryDx=0;entryDy=0;" edge="1" parent="lQVxlF4VZJa24ufhP5Dz-40" source="lQVxlF4VZJa24ufhP5Dz-1" target="lQVxlF4VZJa24ufhP5Dz-6">
          <mxGeometry relative="1" as="geometry" />
        </mxCell>
        <mxCell id="lQVxlF4VZJa24ufhP5Dz-21" style="edgeStyle=orthogonalEdgeStyle;rounded=0;orthogonalLoop=1;jettySize=auto;html=1;exitX=0.75;exitY=0;exitDx=0;exitDy=0;entryX=0.75;entryY=1;entryDx=0;entryDy=0;fontSize=29;" edge="1" parent="lQVxlF4VZJa24ufhP5Dz-40" source="lQVxlF4VZJa24ufhP5Dz-1" target="lQVxlF4VZJa24ufhP5Dz-6">
          <mxGeometry relative="1" as="geometry" />
        </mxCell>
        <mxCell id="lQVxlF4VZJa24ufhP5Dz-7" value="&lt;span style=&quot;font-size: 23px&quot;&gt;&lt;b&gt;APIGateway&lt;/b&gt;&lt;/span&gt;" style="rounded=0;whiteSpace=wrap;html=1;fillColor=#dae8fc;strokeColor=#6c8ebf;" vertex="1" parent="lQVxlF4VZJa24ufhP5Dz-40">
          <mxGeometry x="159" y="170" width="211" height="90" as="geometry" />
        </mxCell>
        <mxCell id="lQVxlF4VZJa24ufhP5Dz-18" style="edgeStyle=orthogonalEdgeStyle;rounded=0;orthogonalLoop=1;jettySize=auto;html=1;fontSize=29;" edge="1" parent="lQVxlF4VZJa24ufhP5Dz-40" source="lQVxlF4VZJa24ufhP5Dz-4" target="lQVxlF4VZJa24ufhP5Dz-7">
          <mxGeometry relative="1" as="geometry" />
        </mxCell>
        <mxCell id="lQVxlF4VZJa24ufhP5Dz-8" value="&lt;b&gt;&lt;font style=&quot;font-size: 29px&quot;&gt;aPaas&lt;/font&gt;&lt;/b&gt;" style="text;html=1;strokeColor=none;fillColor=none;align=center;verticalAlign=middle;whiteSpace=wrap;rounded=0;" vertex="1" parent="lQVxlF4VZJa24ufhP5Dz-40">
          <mxGeometry x="50" y="460" width="60" height="30" as="geometry" />
        </mxCell>
        <mxCell id="lQVxlF4VZJa24ufhP5Dz-9" value="&lt;span style=&quot;font-size: 23px&quot;&gt;&lt;b&gt;应用&lt;/b&gt;&lt;/span&gt;" style="rounded=0;whiteSpace=wrap;html=1;fillColor=#f5f5f5;fontColor=#333333;strokeColor=#666666;" vertex="1" parent="lQVxlF4VZJa24ufhP5Dz-40">
          <mxGeometry x="159" y="40" width="430" height="90" as="geometry" />
        </mxCell>
        <mxCell id="lQVxlF4VZJa24ufhP5Dz-16" style="edgeStyle=orthogonalEdgeStyle;rounded=0;orthogonalLoop=1;jettySize=auto;html=1;entryX=0.75;entryY=1;entryDx=0;entryDy=0;fontSize=29;" edge="1" parent="lQVxlF4VZJa24ufhP5Dz-40" source="lQVxlF4VZJa24ufhP5Dz-6" target="lQVxlF4VZJa24ufhP5Dz-9">
          <mxGeometry relative="1" as="geometry">
            <Array as="points">
              <mxPoint x="482" y="285" />
            </Array>
          </mxGeometry>
        </mxCell>
        <mxCell id="lQVxlF4VZJa24ufhP5Dz-19" style="edgeStyle=orthogonalEdgeStyle;rounded=0;orthogonalLoop=1;jettySize=auto;html=1;fontSize=29;" edge="1" parent="lQVxlF4VZJa24ufhP5Dz-40" source="lQVxlF4VZJa24ufhP5Dz-7" target="lQVxlF4VZJa24ufhP5Dz-9">
          <mxGeometry relative="1" as="geometry">
            <mxPoint x="265" y="140" as="targetPoint" />
            <Array as="points">
              <mxPoint x="265" y="140" />
              <mxPoint x="265" y="140" />
            </Array>
          </mxGeometry>
        </mxCell>
        <mxCell id="lQVxlF4VZJa24ufhP5Dz-10" value="&lt;b&gt;&lt;font style=&quot;font-size: 29px&quot;&gt;Saas&lt;/font&gt;&lt;/b&gt;" style="text;html=1;strokeColor=none;fillColor=none;align=center;verticalAlign=middle;whiteSpace=wrap;rounded=0;" vertex="1" parent="lQVxlF4VZJa24ufhP5Dz-40">
          <mxGeometry x="50" y="70" width="60" height="30" as="geometry" />
        </mxCell>
        <mxCell id="lQVxlF4VZJa24ufhP5Dz-41" value="" style="group" vertex="1" connectable="0" parent="1">
          <mxGeometry x="100" y="-140" width="670" height="670" as="geometry" />
        </mxCell>
        <mxCell id="lQVxlF4VZJa24ufhP5Dz-42" value="" style="whiteSpace=wrap;html=1;aspect=fixed;fontSize=29;fillColor=#C8FAE6;strokeColor=#ae4132;" vertex="1" parent="lQVxlF4VZJa24ufhP5Dz-41">
          <mxGeometry width="670" height="670" as="geometry" />
        </mxCell>
        <mxCell id="lQVxlF4VZJa24ufhP5Dz-43" value="&lt;b&gt;&lt;font style=&quot;font-size: 23px&quot;&gt;公有云 / IDC / 混合云&lt;/font&gt;&lt;/b&gt;" style="rounded=0;whiteSpace=wrap;html=1;fillColor=#f5f5f5;fontColor=#333333;strokeColor=#666666;" vertex="1" parent="lQVxlF4VZJa24ufhP5Dz-41">
          <mxGeometry x="159" y="550" width="430" height="90" as="geometry" />
        </mxCell>
        <mxCell id="lQVxlF4VZJa24ufhP5Dz-44" value="&lt;b&gt;&lt;font style=&quot;font-size: 29px&quot;&gt;Iaas&lt;/font&gt;&lt;/b&gt;" style="text;html=1;strokeColor=none;fillColor=none;align=center;verticalAlign=middle;whiteSpace=wrap;rounded=0;" vertex="1" parent="lQVxlF4VZJa24ufhP5Dz-41">
          <mxGeometry x="50" y="580" width="60" height="30" as="geometry" />
        </mxCell>
        <mxCell id="lQVxlF4VZJa24ufhP5Dz-45" value="&lt;b&gt;&lt;font style=&quot;font-size: 23px&quot;&gt;校园场景服务&lt;/font&gt;&lt;/b&gt;" style="rounded=0;whiteSpace=wrap;html=1;fillColor=#f5f5f5;fontColor=#333333;strokeColor=#666666;" vertex="1" parent="lQVxlF4VZJa24ufhP5Dz-41">
          <mxGeometry x="160" y="300" width="210" height="90" as="geometry" />
        </mxCell>
        <mxCell id="lQVxlF4VZJa24ufhP5Dz-46" value="&lt;b&gt;&lt;font style=&quot;font-size: 29px&quot;&gt;IPaas&lt;/font&gt;&lt;/b&gt;" style="text;html=1;strokeColor=none;fillColor=none;align=center;verticalAlign=middle;whiteSpace=wrap;rounded=0;" vertex="1" parent="lQVxlF4VZJa24ufhP5Dz-41">
          <mxGeometry x="40" y="270" width="60" height="30" as="geometry" />
        </mxCell>
        <mxCell id="lQVxlF4VZJa24ufhP5Dz-47" style="edgeStyle=orthogonalEdgeStyle;rounded=0;orthogonalLoop=1;jettySize=auto;html=1;fontSize=29;" edge="1" parent="lQVxlF4VZJa24ufhP5Dz-41" source="lQVxlF4VZJa24ufhP5Dz-48" target="lQVxlF4VZJa24ufhP5Dz-45">
          <mxGeometry relative="1" as="geometry">
            <Array as="points">
              <mxPoint x="265" y="420" />
              <mxPoint x="265" y="420" />
            </Array>
          </mxGeometry>
        </mxCell>
        <mxCell id="lQVxlF4VZJa24ufhP5Dz-48" value="&lt;span style=&quot;font-size: 23px&quot;&gt;&lt;b&gt;蓝鲸基础版&lt;/b&gt;&lt;/span&gt;" style="rounded=0;whiteSpace=wrap;html=1;fillColor=#ffe6cc;strokeColor=#d79b00;" vertex="1" parent="lQVxlF4VZJa24ufhP5Dz-41">
          <mxGeometry x="159.5" y="430" width="429.5" height="90" as="geometry" />
        </mxCell>
        <mxCell id="lQVxlF4VZJa24ufhP5Dz-49" style="edgeStyle=orthogonalEdgeStyle;rounded=0;orthogonalLoop=1;jettySize=auto;html=1;exitX=0.25;exitY=0;exitDx=0;exitDy=0;fontSize=29;entryX=0.25;entryY=1;entryDx=0;entryDy=0;" edge="1" parent="lQVxlF4VZJa24ufhP5Dz-41" source="lQVxlF4VZJa24ufhP5Dz-43" target="lQVxlF4VZJa24ufhP5Dz-48">
          <mxGeometry relative="1" as="geometry" />
        </mxCell>
        <mxCell id="lQVxlF4VZJa24ufhP5Dz-50" style="edgeStyle=orthogonalEdgeStyle;rounded=0;orthogonalLoop=1;jettySize=auto;html=1;exitX=0.75;exitY=0;exitDx=0;exitDy=0;entryX=0.75;entryY=1;entryDx=0;entryDy=0;fontSize=29;" edge="1" parent="lQVxlF4VZJa24ufhP5Dz-41" source="lQVxlF4VZJa24ufhP5Dz-43" target="lQVxlF4VZJa24ufhP5Dz-48">
          <mxGeometry relative="1" as="geometry" />
        </mxCell>
        <mxCell id="lQVxlF4VZJa24ufhP5Dz-51" value="&lt;span style=&quot;font-size: 23px&quot;&gt;&lt;b&gt;蓝鲸APIGateway&lt;/b&gt;&lt;/span&gt;" style="rounded=0;whiteSpace=wrap;html=1;fillColor=#dae8fc;strokeColor=#6c8ebf;" vertex="1" parent="lQVxlF4VZJa24ufhP5Dz-41">
          <mxGeometry x="159" y="170" width="211" height="90" as="geometry" />
        </mxCell>
        <mxCell id="lQVxlF4VZJa24ufhP5Dz-52" style="edgeStyle=orthogonalEdgeStyle;rounded=0;orthogonalLoop=1;jettySize=auto;html=1;fontSize=29;" edge="1" parent="lQVxlF4VZJa24ufhP5Dz-41" source="lQVxlF4VZJa24ufhP5Dz-45" target="lQVxlF4VZJa24ufhP5Dz-51">
          <mxGeometry relative="1" as="geometry" />
        </mxCell>
        <mxCell id="lQVxlF4VZJa24ufhP5Dz-53" value="&lt;b&gt;&lt;font style=&quot;font-size: 29px&quot;&gt;aPaas&lt;/font&gt;&lt;/b&gt;" style="text;html=1;strokeColor=none;fillColor=none;align=center;verticalAlign=middle;whiteSpace=wrap;rounded=0;" vertex="1" parent="lQVxlF4VZJa24ufhP5Dz-41">
          <mxGeometry x="50" y="460" width="60" height="30" as="geometry" />
        </mxCell>
        <mxCell id="lQVxlF4VZJa24ufhP5Dz-54" value="&lt;b style=&quot;font-size: 23px&quot;&gt;校园应用&lt;/b&gt;" style="rounded=0;whiteSpace=wrap;html=1;fillColor=#f5f5f5;fontColor=#333333;strokeColor=#666666;" vertex="1" parent="lQVxlF4VZJa24ufhP5Dz-41">
          <mxGeometry x="159" y="40" width="430" height="90" as="geometry" />
        </mxCell>
        <mxCell id="lQVxlF4VZJa24ufhP5Dz-55" style="edgeStyle=orthogonalEdgeStyle;rounded=0;orthogonalLoop=1;jettySize=auto;html=1;entryX=0.75;entryY=1;entryDx=0;entryDy=0;fontSize=29;" edge="1" parent="lQVxlF4VZJa24ufhP5Dz-41" source="lQVxlF4VZJa24ufhP5Dz-48" target="lQVxlF4VZJa24ufhP5Dz-54">
          <mxGeometry relative="1" as="geometry">
            <Array as="points">
              <mxPoint x="482" y="285" />
            </Array>
          </mxGeometry>
        </mxCell>
        <mxCell id="lQVxlF4VZJa24ufhP5Dz-56" style="edgeStyle=orthogonalEdgeStyle;rounded=0;orthogonalLoop=1;jettySize=auto;html=1;fontSize=29;" edge="1" parent="lQVxlF4VZJa24ufhP5Dz-41" source="lQVxlF4VZJa24ufhP5Dz-51" target="lQVxlF4VZJa24ufhP5Dz-54">
          <mxGeometry relative="1" as="geometry">
            <mxPoint x="265" y="140" as="targetPoint" />
            <Array as="points">
              <mxPoint x="265" y="140" />
              <mxPoint x="265" y="140" />
            </Array>
          </mxGeometry>
        </mxCell>
        <mxCell id="lQVxlF4VZJa24ufhP5Dz-57" value="&lt;b&gt;&lt;font style=&quot;font-size: 29px&quot;&gt;Saas&lt;/font&gt;&lt;/b&gt;" style="text;html=1;strokeColor=none;fillColor=none;align=center;verticalAlign=middle;whiteSpace=wrap;rounded=0;" vertex="1" parent="lQVxlF4VZJa24ufhP5Dz-41">
          <mxGeometry x="50" y="70" width="60" height="30" as="geometry" />
        </mxCell>
        <mxCell id="lQVxlF4VZJa24ufhP5Dz-65" value="" style="endArrow=none;dashed=1;html=1;dashPattern=1 3;strokeWidth=2;rounded=0;fontSize=29;exitX=1;exitY=0.5;exitDx=0;exitDy=0;entryX=0;entryY=0.5;entryDx=0;entryDy=0;" edge="1" parent="1" source="lQVxlF4VZJa24ufhP5Dz-45" target="lQVxlF4VZJa24ufhP5Dz-63">
          <mxGeometry width="50" height="50" relative="1" as="geometry">
            <mxPoint x="860" y="-140" as="sourcePoint" />
            <mxPoint x="910" y="-190" as="targetPoint" />
          </mxGeometry>
        </mxCell>
        <mxCell id="lQVxlF4VZJa24ufhP5Dz-66" value="" style="group" vertex="1" connectable="0" parent="1">
          <mxGeometry x="827" y="-30" width="470" height="470" as="geometry" />
        </mxCell>
        <mxCell id="lQVxlF4VZJa24ufhP5Dz-63" value="" style="whiteSpace=wrap;html=1;aspect=fixed;fontSize=29;fillColor=#fad7ac;strokeColor=#b46504;" vertex="1" parent="lQVxlF4VZJa24ufhP5Dz-66">
          <mxGeometry width="470" height="470" as="geometry" />
        </mxCell>
        <mxCell id="lQVxlF4VZJa24ufhP5Dz-58" value="&lt;b style=&quot;font-size: 23px&quot;&gt;数据中心&lt;/b&gt;" style="rounded=0;whiteSpace=wrap;html=1;fillColor=#f5f5f5;fontColor=#333333;strokeColor=#666666;" vertex="1" parent="lQVxlF4VZJa24ufhP5Dz-66">
          <mxGeometry x="20" y="280" width="430" height="90" as="geometry" />
        </mxCell>
        <mxCell id="lQVxlF4VZJa24ufhP5Dz-59" value="&lt;span style=&quot;font-size: 23px&quot;&gt;&lt;b&gt;统一登录&lt;/b&gt;&lt;/span&gt;" style="rounded=0;whiteSpace=wrap;html=1;fillColor=#f5f5f5;fontColor=#333333;strokeColor=#666666;" vertex="1" parent="lQVxlF4VZJa24ufhP5Dz-66">
          <mxGeometry x="20" y="170" width="180" height="90" as="geometry" />
        </mxCell>
        <mxCell id="lQVxlF4VZJa24ufhP5Dz-60" value="&lt;span style=&quot;font-size: 23px&quot;&gt;&lt;b&gt;权限中心&lt;/b&gt;&lt;/span&gt;" style="rounded=0;whiteSpace=wrap;html=1;fillColor=#f5f5f5;fontColor=#333333;strokeColor=#666666;" vertex="1" parent="lQVxlF4VZJa24ufhP5Dz-66">
          <mxGeometry x="220" y="170" width="230" height="90" as="geometry" />
        </mxCell>
        <mxCell id="lQVxlF4VZJa24ufhP5Dz-61" value="应用市场" style="rounded=0;whiteSpace=wrap;html=1;fontSize=29;fillColor=#C8FAE6;" vertex="1" parent="lQVxlF4VZJa24ufhP5Dz-66">
          <mxGeometry x="20" y="90" width="430" height="60" as="geometry" />
        </mxCell>
      </root>
    </mxGraphModel>
  </diagram>
</mxfile>
